# xmcd
#
# Track frame offsets:
#	150
#	19150
#	36348
#	53157
#	69179
#	86515
#	104613
#	121393
#	140246
#	158112
#	176019
#	192831
#	210400
#	230743
#
# Disc length: 3315 seconds
#
# Revision: 1
# Processed by: cddbd v1.5.1PL2 Copyright (c) Steve Scherf et al.
# Submitted via: audiograbber 1.83.01
#
DISCID=c50cf10e
DTITLE=Promo Only - Urban Club 2005-02
DYEAR=2005
DGENRE=Urban Club
TTITLE0=Tango - Wobble And Shake It (ft. Bone Crusher and David Banner)
TTITLE1=Jennifer Lopez - Get Right (ft. Fabulous)
TTITLE2=Tyra - Country Boy
TTITLE3=Mashonda - Back Of The Club (Album Version)
TTITLE4=Raheem DeVaughn - Guess Who Loves You More
TTITLE5=Fat Joe - Safe To Say (The Incredible)
TTITLE6=Lyfe Jennings - Must Be Nice (Album Version)
TTITLE7=Trillville - Some Cut (ft. Cutty)
TTITLE8=Nas - Just A Moment (ft. Quan)
TTITLE9=N2U - Baby Mama Love (ft. Jermaine Dupri)
TTITLE10=Allure - uh Oh (ft. Elephantman)
TTITLE11=Amerie - 1 Thing
TTITLE12=Miri Ben-Ari - Sunshine To The Rain (ft. Scarface and Anthony Hamilton)
TTITLE13=Boo - I'm Ready (Dirty Version)
EXTD=
EXTT0=
EXTT1=
EXTT2=
EXTT3=
EXTT4=
EXTT5=
EXTT6=
EXTT7=
EXTT8=
EXTT9=
EXTT10=
EXTT11=
EXTT12=
EXTT13=
PLAYORDER=
